<svg width="20" height="20" viewBox="0 0 20 20" fill="none" xmlns="http://www.w3.org/2000/svg">
<path opacity="0.25" fill-rule="evenodd" clip-rule="evenodd" d="M10.0008 0C7.285 0 6.94417 0.011875 5.8775 0.0604167C4.81292 0.109167 4.08625 0.277708 3.45042 0.525C2.79271 0.780417 2.23479 1.12208 1.67896 1.67813C1.12271 2.23396 0.781042 2.79187 0.524792 3.44937C0.276875 4.08542 0.108125 4.81229 0.0602083 5.87646C0.0125 6.94313 0 7.28417 0 10C0 12.7158 0.0120833 13.0556 0.0604167 14.1223C0.109375 15.1869 0.277917 15.9135 0.525 16.5494C0.780625 17.2071 1.12229 17.765 1.67833 18.3208C2.23396 18.8771 2.79187 19.2196 3.44917 19.475C4.08542 19.7223 4.81229 19.8908 5.87667 19.9396C6.94333 19.9881 7.28396 20 9.99958 20C12.7156 20 13.0554 19.9881 14.1221 19.9396C15.1867 19.8908 15.9142 19.7223 16.5504 19.475C17.2079 19.2196 17.765 18.8771 18.3206 18.3208C18.8769 17.765 19.2185 17.2071 19.4748 16.5496C19.7206 15.9135 19.8894 15.1867 19.9394 14.1225C19.9873 13.0558 19.9998 12.7158 19.9998 10C19.9998 7.28417 19.9873 6.94333 19.9394 5.87667C19.8894 4.81208 19.7206 4.08542 19.4748 3.44958C19.2185 2.79188 18.8769 2.23396 18.3206 1.67813C17.7644 1.12188 17.2081 0.780208 16.5498 0.525C15.9123 0.277708 15.1852 0.109167 14.1206 0.0604167C13.054 0.011875 12.7144 0 9.99771 0H10.0008ZM9.10373 1.80206C9.36998 1.80164 9.66706 1.80206 10.0008 1.80206C12.6708 1.80206 12.9873 1.81164 14.0416 1.85956C15.0166 1.90414 15.5458 2.06706 15.8983 2.20394C16.365 2.38519 16.6977 2.60185 17.0475 2.95185C17.3975 3.30185 17.6141 3.63519 17.7958 4.10185C17.9327 4.45394 18.0958 4.9831 18.1402 5.9581C18.1881 7.01227 18.1985 7.32894 18.1985 9.99769C18.1985 12.6664 18.1881 12.9831 18.1402 14.0373C18.0956 15.0123 17.9327 15.5414 17.7958 15.8935C17.6146 16.3602 17.3975 16.6925 17.0475 17.0423C16.6975 17.3923 16.3652 17.6089 15.8983 17.7902C15.5462 17.9277 15.0166 18.0902 14.0416 18.1348C12.9875 18.1827 12.6708 18.1931 10.0008 18.1931C7.33061 18.1931 7.01415 18.1827 5.95998 18.1348C4.98498 18.0898 4.45581 17.9269 4.10311 17.79C3.63644 17.6087 3.30311 17.3921 2.95311 17.0421C2.60311 16.6921 2.38644 16.3596 2.20477 15.8927C2.0679 15.5406 1.90477 15.0114 1.8604 14.0364C1.81248 12.9823 1.8029 12.6656 1.8029 9.99519C1.8029 7.32477 1.81248 7.00977 1.8604 5.9556C1.90498 4.9806 2.0679 4.45144 2.20477 4.09894C2.38602 3.63227 2.60311 3.29894 2.95311 2.94894C3.30311 2.59894 3.63644 2.38227 4.10311 2.2006C4.45561 2.0631 4.98498 1.9006 5.95998 1.85581C6.88248 1.81414 7.23998 1.80164 9.10373 1.79956V1.80206ZM15.3387 3.46249C14.6762 3.46249 14.1387 3.99937 14.1387 4.66208C14.1387 5.32458 14.6762 5.86208 15.3387 5.86208C16.0012 5.86208 16.5387 5.32458 16.5387 4.66208C16.5387 3.99958 16.0012 3.46208 15.3387 3.46208V3.46249ZM10.0008 4.86458C7.16477 4.86458 4.8654 7.16396 4.8654 10C4.8654 12.836 7.16477 15.1344 10.0008 15.1344C12.8369 15.1344 15.1354 12.836 15.1354 10C15.1354 7.16396 12.8366 4.86458 10.0006 4.86458H10.0008ZM10.0008 6.66667C11.8416 6.66667 13.3341 8.15896 13.3341 10C13.3341 11.8408 11.8416 13.3333 10.0008 13.3333C8.15977 13.3333 6.66748 11.8408 6.66748 10C6.66748 8.15896 8.15977 6.66667 10.0008 6.66667Z" fill="white"/>
</svg>
