<svg width="58" height="45" viewBox="0 0 58 45" fill="none" xmlns="http://www.w3.org/2000/svg">
<path d="M29.4392 44.4399L37.7153 7.27477C37.7392 7.16711 37.8874 7.18579 37.8874 7.29636V43.8575C37.8874 44.4885 38.3658 45 38.9561 45H56.5303C57.2872 45 57.8044 44.1816 57.5216 43.4309L41.2959 0.345154C41.1353 -0.0813599 40.5852 -0.12225 40.371 0.276546L38.4975 3.7608V3.76141L37.8874 4.89639L37.8321 4.99946L28.7999 21.8L19.7125 4.89639L19.1025 3.76141L17.2291 0.276699C17.0148 -0.122097 16.4648 -0.0812035 16.3041 0.345463L0.0784117 43.4309C-0.20438 44.1816 0.312638 45 1.06976 45H18.6438C19.234 45 19.7125 44.4885 19.7125 43.8575V7.29636C19.7125 7.18579 19.8608 7.16711 19.8847 7.27477L28.1609 44.4399C28.321 45.1596 29.2788 45.1596 29.4392 44.4399Z" fill="#E2360E"/>
</svg>
