<svg width="107" height="50" viewBox="0 0 107 50" fill="none" xmlns="http://www.w3.org/2000/svg">
<path d="M56.9011 1.36364V48.6364H45.1596V15.4545H44.708L34.3213 48.6364H22.5798L12.1931 15.4545H11.7415V48.6364H0V1.36364H18.967L28.4505 34.0909L37.9341 1.36364H56.9011Z" fill="white"/>
<path d="M60.9372 25C60.9372 11.1818 68.9756 0 84.4202 0C99.8648 0 107 11.1818 107 25C107 26.0909 106.91 27.7273 106.91 27.7273H73.6722C74.2141 35 77.285 40.4545 84.8718 40.4545C92.5489 40.4545 93.9037 33.1818 93.9037 33.1818H106.548C106.548 33.1818 103.839 50 84.4202 50C68.6144 50 60.9372 38.8182 60.9372 25ZM84.4202 9.54546C78.1882 9.54546 75.1173 13.7273 74.0335 19.5455H93.994C93.1812 13.7273 90.6522 9.54546 84.4202 9.54546Z" fill="white"/>
</svg>
