<svg width="353" height="34" viewBox="0 0 353 34" fill="none" xmlns="http://www.w3.org/2000/svg">
<path d="M14.0442 24.9178V11.411C14.0442 7.21918 13.2153 5.35616 10.6828 5.35616C7.91999 5.35616 6.4465 7.45205 6.4465 12.3425V24.9178H0V0.698629H6.21627V4.65753H6.4465C6.4465 4.65753 8.05813 0 12.893 0C16.7609 0 18.833 1.86301 19.7539 4.70411L19.8 4.65753H20.0302C20.0302 4.65753 22.1023 0 26.9372 0C32.9232 0 34.5348 4.42466 34.5348 10.0137V24.9178H28.0883V11.411C28.0883 7.21918 27.2595 5.35616 24.7269 5.35616C21.9642 5.35616 20.4907 7.45205 20.4907 12.3425V24.9178H14.0442Z" fill="white"/>
<path d="M36.8282 33.3014V0.698629H43.0444V3.9589H43.2747C43.2747 3.9589 45.3468 0 50.6421 0C57.5491 0 61.0025 6.05479 61.0025 12.8082C61.0025 19.5616 57.5491 25.6164 50.6421 25.6164C45.577 25.6164 43.5049 22.3562 43.5049 22.3562H43.2747V33.3014H36.8282ZM43.0444 12.8082C43.0444 17.1863 44.8863 20.726 48.8002 20.726C52.7142 20.726 54.556 17.1863 54.556 12.8082C54.556 8.43014 52.7142 4.89041 48.8002 4.89041C44.8863 4.89041 43.0444 8.43014 43.0444 12.8082Z" fill="white"/>
<path d="M69.3053 12.8082C69.3053 17.1863 70.963 20.726 75.0611 20.726C79.1592 20.726 80.8169 17.1863 80.8169 12.8082C80.8169 8.43014 79.1592 4.89041 75.0611 4.89041C70.963 4.89041 69.3053 8.43014 69.3053 12.8082ZM62.8588 12.8082C62.8588 5.72877 67.1872 0 75.0611 0C82.9351 0 87.2634 5.72877 87.2634 12.8082C87.2634 19.8877 82.9351 25.6164 75.0611 25.6164C67.1872 25.6164 62.8588 19.8877 62.8588 12.8082Z" fill="white"/>
<path d="M100.412 24.9178V0.698629H106.628V4.65753H106.858C106.858 4.65753 108.93 0 114.226 0C120.903 0 122.744 4.42466 122.744 10.0137V24.9178H116.298V11.411C116.298 7.21918 115.147 5.35616 112.154 5.35616C108.7 5.35616 106.858 7.45205 106.858 12.3425V24.9178H100.412Z" fill="white"/>
<path d="M148.093 0.698629L139.575 25.6164C137.687 31.1589 135.2 34 130.365 34C128.063 34 126.221 33.3014 126.221 33.3014V27.9452C126.221 27.9452 127.603 28.411 129.214 28.411C131.517 28.411 132.438 27.1534 133.358 24.9178L123.689 0.698629H130.596L136.444 16.674L141.186 0.698629H148.093Z" fill="white"/>
<path d="M170.187 0.698629V14.2055C170.187 18.3973 171.015 20.2603 173.548 20.2603C176.311 20.2603 177.784 18.1644 177.784 13.274V0.698629H184.231V24.9178H178.014V20.9589H177.784C177.784 20.9589 176.173 25.6164 171.338 25.6164C167.47 25.6164 165.444 23.8 164.477 20.9589H164.201C164.201 20.9589 162.128 25.6164 157.294 25.6164C151.308 25.6164 149.696 21.1918 149.696 15.6027V0.698629H156.142V14.2055C156.142 18.3973 156.971 20.2603 159.504 20.2603C162.267 20.2603 163.74 18.1644 163.74 13.274V0.698629H170.187Z" fill="white"/>
<path d="M186.524 24.9178V0.698629H192.971V10.4795L201.489 0.698629H209.087L200.062 10.1534L209.547 24.9178H201.673L195.595 14.811L192.971 17.5589V24.9178H186.524Z" fill="white"/>
<path d="M232.824 0.698629V24.9178H226.608V20.9589H226.378C226.378 20.9589 224.306 25.6164 219.01 25.6164C212.333 25.6164 210.492 21.1918 210.492 15.6027V0.698629H216.938V14.2055C216.938 18.3973 218.089 20.2603 221.082 20.2603C224.536 20.2603 226.378 18.1644 226.378 13.274V0.698629H232.824Z" fill="white"/>
<path d="M250.559 24.9178V15.3699H241.58V24.9178H235.134V0.698629H241.58V10.2466H250.559V0.698629H257.006V24.9178H250.559Z" fill="white"/>
<path d="M259.096 12.8082C259.096 5.72877 263.24 0 271.068 0C281.659 0 282.349 9.54795 282.349 9.54795H275.903C275.903 9.54795 275.673 4.89041 271.068 4.89041C266.97 4.89041 265.542 8.43014 265.542 12.8082C265.542 17.1863 266.97 20.726 271.068 20.726C275.673 20.726 275.903 16.0685 275.903 16.0685H282.349C282.349 16.0685 281.659 25.6164 271.068 25.6164C263.24 25.6164 259.096 19.8877 259.096 12.8082Z" fill="white"/>
<path d="M284.418 24.9178V0.698629H290.864V10.4795L299.383 0.698629H306.981L297.955 10.1534L307.441 24.9178H299.567L293.489 14.811L290.864 17.5589V24.9178H284.418Z" fill="white"/>
<path d="M314.567 8.15069H308.121C308.489 1.95616 313.416 0 318.942 0C324.698 0 329.302 2.09589 329.302 8.38356V24.9178H322.856V20.2603H322.625C322.625 20.2603 321.152 25.6164 315.028 25.6164C310.653 25.6164 307.43 23.5671 307.43 19.0959C307.43 14.5781 311.114 12.5288 315.074 11.5041C319.08 10.4795 322.856 10.1534 322.856 7.45205C322.856 5.54247 321.474 4.42466 318.942 4.42466C316.179 4.42466 314.659 5.54247 314.567 8.15069ZM322.856 12.7151C321.797 13.6932 319.633 14.2055 317.791 14.6712C315.719 15.1836 313.969 16.2548 313.969 18.3973C313.969 20.2603 315.258 21.4247 317.33 21.4247C321.705 21.4247 322.856 16.3014 322.856 12.7151Z" fill="white"/>
<path d="M353 0.698629V24.9178H346.553V16.0685H341.949L338.127 24.9178H330.898L335.779 14.9041C333.016 13.6 331.588 11.3178 331.588 8.38356C331.588 3.72603 335.272 0.698629 341.949 0.698629H353ZM342.87 11.411H346.553V5.35616H342.87C339.416 5.35616 338.035 6.28767 338.035 8.38356C338.035 10.4795 339.416 11.411 342.87 11.411Z" fill="white"/>
</svg>
