<?xml version="1.0" encoding="utf-8"?><svg viewBox="0 0 91 20" xmlns="http://www.w3.org/2000/svg" xmlns:xlink="http://www.w3.org/1999/xlink"><style>:root>svg{display:none}:root>svg:target{display:block}</style><svg viewBox="0 0 91 10" id="arrow-next" xmlns="http://www.w3.org/2000/svg"><path d="M90.46 5.46a.65.65 0 000-.92L86.323.404a.65.65 0 10-.92.919L89.082 5l-3.677 3.677a.65.65 0 00.919.92L90.46 5.46zM0 5.65h90v-1.3H0v1.3z"/></svg><svg viewBox="0 0 91 10" id="arrow-prev" xmlns="http://www.w3.org/2000/svg"><path d="M.54 4.54a.65.65 0 000 .92l4.137 4.136a.65.65 0 10.92-.92L1.918 5l3.677-3.677a.65.65 0 10-.919-.92L.54 4.54zM91 4.35H1v1.3h90v-1.3z"/></svg><svg viewBox="0 0 20 20" id="instagram" xmlns="http://www.w3.org/2000/svg"><path fill-rule="evenodd" clip-rule="evenodd" d="M10 0C7.286 0 6.945.012 5.879.06 4.813.11 4.086.278 3.45.525A4.897 4.897 0 001.68 1.678 4.909 4.909 0 00.525 3.45C.277 4.085.108 4.812.06 5.876.012 6.943 0 7.284 0 10c0 2.716.012 3.056.06 4.122.05 1.065.218 1.792.465 2.427a4.9 4.9 0 001.153 1.772 4.896 4.896 0 001.771 1.154c.636.247 1.363.416 2.428.465 1.066.048 1.407.06 4.123.06s3.055-.012 4.122-.06c1.065-.05 1.792-.218 2.428-.465a4.892 4.892 0 001.77-1.154 4.909 4.909 0 001.155-1.771c.246-.636.414-1.363.464-2.428.048-1.066.06-1.406.06-4.122s-.012-3.057-.06-4.123c-.05-1.065-.218-1.792-.464-2.427a4.908 4.908 0 00-1.154-1.772A4.887 4.887 0 0016.55.525C15.912.278 15.185.109 14.12.06 13.055.012 12.715 0 9.999 0H10zm-.896 1.802H10c2.67 0 2.986.01 4.04.058.976.044 1.505.207 1.857.344.467.181.8.398 1.15.748.35.35.566.683.748 1.15.137.352.3.881.344 1.856.048 1.054.058 1.37.058 4.04 0 2.668-.01 2.985-.058 4.04-.044.974-.207 1.503-.344 1.855a3.091 3.091 0 01-.748 1.15c-.35.35-.683.566-1.15.747-.352.138-.881.3-1.856.345-1.054.048-1.371.058-4.041.058-2.67 0-2.987-.01-4.041-.058-.975-.045-1.504-.208-1.857-.345a3.098 3.098 0 01-1.15-.748 3.1 3.1 0 01-.748-1.15c-.137-.351-.3-.88-.345-1.856-.048-1.054-.057-1.37-.057-4.04 0-2.671.01-2.986.057-4.04.045-.975.208-1.505.345-1.857.181-.467.398-.8.748-1.15.35-.35.683-.567 1.15-.748.353-.138.882-.3 1.857-.345.922-.042 1.28-.054 3.144-.056v.002zm6.235 1.66a1.2 1.2 0 100 2.401 1.2 1.2 0 000-2.4zM10 4.865a5.136 5.136 0 100 10.27 5.136 5.136 0 000-10.27zm0 1.802a3.333 3.333 0 110 6.666 3.333 3.333 0 010-6.666z"/></svg><svg viewBox="0 0 20 13" id="vk" xmlns="http://www.w3.org/2000/svg"><path d="M10.893 12.48C4.06 12.48.163 7.795 0 0h3.423c.112 5.721 2.636 8.145 4.634 8.645V0h3.223v4.934c1.974-.212 4.048-2.46 4.747-4.934h3.223c-.537 3.048-2.785 5.297-4.384 6.221 1.599.75 4.16 2.71 5.134 6.259h-3.548c-.762-2.374-2.66-4.21-5.172-4.46v4.46h-.387z"/></svg></svg>