<svg width="25" height="26" viewBox="0 0 25 26" fill="none" xmlns="http://www.w3.org/2000/svg">
<path d="M19.9339 16.6813C17.4587 19.6401 14.4792 21.9696 11.0784 23.618C9.78364 24.2316 8.05207 24.9596 6.1229 25.0844C6.0033 25.0896 5.8889 25.0948 5.76931 25.0948C4.47453 25.0948 3.43455 24.6476 2.58696 23.7272C2.58176 23.722 2.57136 23.7116 2.56616 23.7012C2.26457 23.3372 1.92137 23.0096 1.56258 22.6612C1.31818 22.4272 1.06859 22.1828 0.829391 21.9332C-0.278191 20.7788 -0.278191 19.3125 0.83979 18.1945L3.96494 15.0693C4.49533 14.5182 5.12972 14.227 5.79531 14.227C6.46089 14.227 7.10048 14.5182 7.64647 15.0641L9.50804 16.9257C9.67964 16.8269 9.85644 16.7385 10.0228 16.6553C10.2308 16.5513 10.4232 16.4525 10.5948 16.3433C12.29 15.2669 13.8292 13.863 15.3007 12.0586C16.0443 11.1174 16.5435 10.327 16.8919 9.52104C16.4031 9.07904 15.9455 8.61625 15.5035 8.16386C15.3475 8.00266 15.1863 7.84146 15.0251 7.68027C14.4636 7.11868 14.162 6.46869 14.162 5.8083C14.162 5.14791 14.4584 4.49792 15.0251 3.93633L16.5747 2.38676C16.7567 2.20476 16.9283 2.02797 17.1051 1.84597C17.4483 1.49237 17.8071 1.12838 18.1607 0.800786C18.6963 0.275595 19.3255 0 19.9911 0C20.6515 0 21.2858 0.275595 21.8422 0.805986L23.787 2.75075C24.4942 3.45794 24.8946 4.31593 24.9778 5.30911C25.0766 6.55189 24.8478 7.87266 24.255 9.46904C23.345 11.939 21.9722 14.2322 19.9339 16.6813ZM23.709 5.41831C23.6466 4.72672 23.3814 4.14953 22.8822 3.65034L20.9478 1.71597C20.6463 1.42478 20.3135 1.27398 19.9911 1.27398C19.6739 1.27398 19.3515 1.42478 19.0551 1.72637C18.7067 2.04876 18.3791 2.38676 18.0255 2.74555C17.8487 2.92755 17.6667 3.10955 17.4847 3.29674L15.9351 4.84632C15.6127 5.16871 15.4463 5.49631 15.4463 5.8187C15.4463 6.14109 15.6127 6.46869 15.9351 6.79108C16.0963 6.95228 16.2575 7.11868 16.4187 7.27987C16.9023 7.76867 17.3547 8.23146 17.8539 8.67345L17.8799 8.69945C18.3115 9.13104 18.2439 9.54184 18.1399 9.85383C18.1347 9.86943 18.1295 9.87983 18.1243 9.89543C17.7239 10.8574 17.1675 11.7726 16.2991 12.8646C14.7392 14.7885 13.096 16.2809 11.2864 17.4301C11.0628 17.5757 10.8236 17.6901 10.6 17.8045C10.392 17.9085 10.1996 18.0073 10.028 18.1165C10.0072 18.1269 9.99163 18.1373 9.97083 18.1477C9.79924 18.2361 9.63284 18.2777 9.46644 18.2777C9.05045 18.2777 8.78005 18.0125 8.69166 17.9241L6.74689 15.9793C6.4453 15.6777 6.1177 15.5165 5.79531 15.5165C5.40011 15.5165 5.07772 15.7609 4.87492 15.9793L1.73937 19.1097C1.11539 19.7337 1.12059 20.4097 1.75498 21.07C1.97337 21.304 2.20217 21.5276 2.44656 21.7616C2.81056 22.1152 3.19015 22.4792 3.53334 22.89C4.13133 23.5348 4.84372 23.8364 5.76411 23.8364C5.8525 23.8364 5.9461 23.8312 6.0345 23.826C7.74007 23.7168 9.32605 23.0512 10.5168 22.4844C13.7512 20.9192 16.5903 18.6989 18.9459 15.8805C20.8854 13.5458 22.1906 11.3722 23.0538 9.04264C23.5894 7.61267 23.7922 6.46349 23.709 5.41831Z" fill="white"/>
</svg>
